<?xml version="1.0" standalone="no"?>
<!DOCTYPE svg PUBLIC "-//W3C//DTD SVG 20010904//EN"
 "http://www.w3.org/TR/2001/REC-SVG-20010904/DTD/svg10.dtd">
<svg version="1.0" xmlns="http://www.w3.org/2000/svg"
 width="260.000000pt" height="260.000000pt" viewBox="0 0 260.000000 260.000000"
 preserveAspectRatio="xMidYMid meet">
<metadata>
Created by potrace 1.11, written by Peter Selinger 2001-2013
</metadata>
<g transform="translate(0.000000,260.000000) scale(0.100000,-0.100000)"
fill="#000000" stroke="none">
<path d="M1898 2230 c-111 -35 -191 -93 -274 -201 -59 -77 -134 -229 -174
-352 -17 -53 -35 -95 -40 -92 -5 3 -7 15 -5 27 3 12 7 42 10 67 3 25 8 62 11
81 3 19 7 76 8 125 7 232 -86 368 -239 349 -202 -24 -425 -314 -576 -749 -21
-60 -38 -105 -38 -100 -1 6 8 57 18 115 39 212 48 302 45 419 -6 202 -73 294
-215 293 -162 -1 -303 -145 -380 -386 -16 -48 -17 -66 -8 -93 14 -42 49 -45
74 -7 34 53 143 150 202 182 119 63 127 50 109 -188 -4 -52 -9 -106 -11 -120
-2 -14 -7 -65 -10 -114 -4 -49 -9 -98 -11 -110 -2 -11 -6 -41 -9 -66 -13 -122
-42 -283 -85 -475 -46 -205 -54 -272 -39 -311 29 -77 215 -86 263 -12 14 22
18 37 32 123 3 22 13 69 21 105 8 36 16 72 18 80 5 24 64 228 92 315 105 330
303 740 392 813 54 44 104 32 136 -33 16 -33 19 -64 21 -181 0 -78 -2 -168 -7
-200 -4 -33 -10 -84 -14 -114 -7 -60 -13 -101 -20 -140 -3 -14 -7 -38 -10 -55
-2 -16 -27 -142 -55 -280 -63 -306 -69 -368 -45 -419 31 -65 101 -83 182 -47
54 25 71 52 88 142 8 41 28 146 45 234 18 88 34 171 37 185 2 14 17 80 33 148
100 419 214 680 331 756 75 48 138 38 164 -26 32 -80 15 -305 -44 -598 -12
-58 -23 -115 -26 -128 -2 -13 -7 -32 -10 -42 -19 -59 -53 -293 -54 -372 -1
-81 2 -100 24 -148 15 -30 38 -68 53 -83 40 -42 114 -76 180 -83 160 -17 315
74 438 258 l45 67 -36 91 c-19 51 -38 96 -41 101 -3 5 -29 -23 -57 -63 -117
-167 -233 -252 -295 -217 -42 23 -53 55 -48 134 6 81 5 77 56 305 34 152 65
312 85 430 3 19 8 94 10 165 8 297 -80 482 -240 504 -39 6 -68 3 -107 -9z"/>
</g>
</svg>
